<?xml version="1.0" encoding="UTF-8"?>
<svg width="14px" height="16px" viewBox="0 0 14 16" version="1.1" xmlns="http://www.w3.org/2000/svg" xmlns:xlink="http://www.w3.org/1999/xlink">
    <!-- Generator: Sketch 39.1 (31720) - http://www.bohemiancoding.com/sketch -->
    <title>AVA</title>
    <desc>Created with Sketch.</desc>
    <defs></defs>
    <g id="Symbols" stroke="none" stroke-width="1" fill="none" fill-rule="evenodd">
        <g id="Header---Mobile" transform="translate(-337.000000, -22.000000)">
            <g id="AVA" transform="translate(326.000000, 13.000000)">
                <path d="M17.5625,16.702785 C19.4682696,16.702785 21.0133465,14.978475 21.0133465,12.851415 C21.0133465,10.72431 20.5060751,9 17.5625,9 C14.6189249,9 14.1115555,10.72431 14.1115555,12.851415 C14.1115555,14.978475 15.6566325,16.702785 17.5625,16.702785 Z M11.0576951,23.0167357 C11.0456951,22.0438074 11.0336951,22.7426143 11.0576951,23.0167357 Z M24.0801889,23.0668743 C24.1181889,22.9161812 24.0931889,22.0213813 24.0801889,23.0668743 Z M19.4520592,16.9983 C19.4520592,16.9983 18.8847458,17.662545 17.562451,17.662545 C16.2401563,17.662545 15.6727449,16.9983 15.6727449,16.9983 C11.6865159,17.65935 11.1278218,18.699525 11.054361,22.30749 C11.0483372,22.602105 11.0455457,22.617585 11.0444683,22.583385 C11.0447132,22.647465 11.045007,22.765995 11.045007,22.97268 C11.045007,22.97268 12.0045033,24.75 17.562451,24.75 C23.1203008,24.75 24.0798951,22.97268 24.0798951,22.97268 C24.0798951,22.839885 24.079993,22.747545 24.0801399,22.684725 C24.0790625,22.705875 24.0769076,22.66488 24.0728428,22.427865 C24.0089319,18.722475 23.4822668,17.66664 19.4520592,16.9983 Z" id="ava" fill="#C5C5C5"></path>
                <circle id="Oval-1" stroke-opacity="0" stroke="#E4E4E4" cx="17" cy="17" r="17"></circle>
            </g>
        </g>
    </g>
</svg>